<svg width="198" height="170" viewBox="0 0 198 170" fill="none" xmlns="http://www.w3.org/2000/svg">
<path class="loading-dot" d="M67.4767 93.0908C67.4767 93.0581 67.4767 93.0255 67.5257 92.9923C67.5747 92.9592 67.6727 92.9265 67.7722 92.8933C67.8717 92.8602 67.9697 92.8275 68.1696 92.6948" stroke="black" stroke-linecap="round"/>
<path class="loading-dot" d="M71.5353 92.3979C71.9283 92.3979 72.7212 92.4632 73.1835 92.7102C73.2835 92.7929 73.3488 92.8909 73.4315 92.9577C73.5141 93.0245 73.6121 93.0572 73.8121 93.0908" stroke="black" stroke-linecap="round"/>
<path class="loading-dot" d="M76.6828 94.0807C76.9125 94.1134 77.3738 94.3104 77.6881 94.6895C77.7708 94.8053 77.8688 94.936 78.0009 95.085C78.1331 95.234 78.2964 95.3973 78.5637 95.5656" stroke="black" stroke-linecap="round"/>
<path class="loading-dot" d="M81.2364 97.4464C81.3018 97.4464 81.4334 97.4464 81.6309 97.4791C82.0483 97.5481 82.2244 98.2027 82.3743 98.6328C82.4233 98.7323 82.5213 98.8303 82.5718 98.9298C82.6223 99.0293 82.6223 99.1273 82.6223 99.2283" stroke="black" stroke-linecap="round"/>
<path class="loading-dot" d="M84.2062 101.01C84.3705 101.207 84.6338 101.602 85.0788 102.064C85.2931 102.23 85.4921 102.33 85.6895 102.395C85.789 102.429 85.887 102.461 85.988 102.495" stroke="black" stroke-linecap="round"/>
<path class="loading-dot" d="M89.2547 104.376C89.32 104.376 89.517 104.376 89.8788 104.425C90.306 104.572 90.6396 104.705 90.8371 104.788C90.9366 104.837 91.0346 104.902 91.1355 104.97" stroke="black" stroke-linecap="round"/>
<path class="loading-dot" d="M94.0063 106.356C94.0716 106.356 94.2686 106.323 94.5651 106.273C94.6982 106.257 94.7962 106.257 94.8957 106.24C94.9952 106.224 95.0932 106.191 95.3921 106.158" stroke="black" stroke-linecap="round"/>
<path class="loading-dot" d="M99.0548 105.168C99.1201 105.168 99.3171 105.168 99.6136 105.119C99.8447 104.972 100.044 104.838 100.225 104.74C100.308 104.674 100.373 104.576 100.54 104.376" stroke="black" stroke-linecap="round"/>
<path class="loading-dot" d="M103.113 101.406C103.113 101.341 103.146 101.209 103.228 100.963C103.278 100.814 103.343 100.618 103.409 100.468C103.476 100.318 103.541 100.22 103.608 100.02" stroke="black" stroke-linecap="round"/>
<path class="loading-dot" d="M105.291 96.9515C105.357 96.9515 105.456 96.8208 105.571 96.5738C105.654 96.3595 105.753 96.1605 105.852 95.7507C105.885 95.4389 105.885 94.9162 105.885 94.3777" stroke="black" stroke-linecap="round"/>
<path class="loading-dot" d="M106.776 91.408C106.908 91.212 107.039 90.618 107.089 90.1067C107.106 89.9578 107.138 89.7944 107.188 89.6286C107.237 89.4628 107.303 89.2995 107.469 88.9332" stroke="black" stroke-linecap="round"/>
<path class="loading-dot" d="M108.756 86.2604C108.756 86.1951 108.854 85.8348 109.019 85.2908C109.118 84.9755 109.185 84.7439 109.267 84.4969C109.316 84.3806 109.382 84.2826 109.449 84.1816" stroke="black" stroke-linecap="round"/>
<path class="loading-dot" d="M110.835 81.8058C110.9 81.6089 111.229 81.2792 111.642 80.9822C111.757 80.8832 111.888 80.7526 111.988 80.6363C112.088 80.52 112.153 80.422 112.221 80.321" stroke="black" stroke-linecap="round"/>
<path class="loading-dot" d="M115.289 77.9452C115.355 77.9452 115.519 77.9125 115.799 77.7814C116.111 77.5195 116.377 77.2859 116.591 77.1216C116.707 77.0226 116.838 76.8919 117.17 76.7573" stroke="black" stroke-linecap="round"/>
<path class="loading-dot" d="M120.14 75.8664C120.337 75.8664 120.732 75.8011 121.21 75.6689C121.327 75.6357 121.425 75.6031 121.606 75.5862C121.787 75.5694 122.048 75.5694 122.318 75.5694" stroke="black" stroke-linecap="round"/>
<path class="loading-dot" d="M125.188 75.7674C125.484 75.7674 125.879 75.8327 126.358 75.8991C126.572 75.9971 126.771 76.097 126.936 76.1955C127.003 76.2614 127.036 76.3594 127.069 76.4603" stroke="black" stroke-linecap="round"/>
<path class="loading-dot" d="M129.247 78.7371C129.182 78.9341 128.984 79.3291 128.917 79.8077C128.719 80.221 128.588 80.518 128.489 80.7155C128.455 80.8149 128.455 80.9129 128.455 81.0139" stroke="black" stroke-linecap="round"/>
<path class="loading-dot" d="M125.188 81.7069C125.123 81.7069 124.861 81.7069 124.465 81.6905C124.2 81.6415 124.002 81.5425 123.804 81.4435C123.705 81.4099 123.607 81.4099 123.506 81.3109" stroke="black" stroke-linecap="round"/>
<path class="loading-dot" d="M120.734 79.628C120.734 79.5627 120.603 79.4637 120.324 79.2994C120.011 79.0697 119.712 78.8044 119.514 78.5411C119.447 78.4085 119.447 78.2778 119.348 78.1432" stroke="black" stroke-linecap="round"/>
<path class="loading-dot" d="M117.764 74.8765C117.764 74.8438 117.764 74.8111 117.764 74.729C117.764 74.6468 117.764 74.5162 117.566 74.3815" stroke="black" stroke-linecap="round"/>
<path class="loading-dot" d="M116.774 69.333C116.774 69.2023 116.774 68.8083 116.807 68.2644C117.07 67.7828 117.334 67.5521 117.466 67.3547C117.532 67.2552 117.598 67.1572 117.665 67.0562" stroke="black" stroke-linecap="round"/>
<path class="loading-dot" d="M118.853 64.0865C118.853 64.0211 118.853 63.7915 118.902 63.4618C119.049 63.2629 119.281 63.0649 119.528 62.8342C119.644 62.7342 119.742 62.6689 119.942 62.6016" stroke="black" stroke-linecap="round"/>
<path class="loading-dot" d="M122.516 59.7309C122.516 59.6655 122.614 59.5012 122.811 59.2869C123.009 59.1706 123.208 59.1042 123.405 59.0384C123.505 59.0053 123.603 58.9726 123.902 58.9389" stroke="black" stroke-linecap="round"/>
<path class="loading-dot" d="M127.366 57.5531C127.432 57.5531 127.563 57.4877 127.761 57.3724C127.958 57.2897 128.19 57.1581 128.437 56.9769C128.553 56.8938 128.651 56.8284 128.851 56.7611" stroke="black" stroke-linecap="round"/>
</svg>
